/* XPM */
static char *_e8a584cfebf4573a973f6f563ed55bbgXoK3xGqqtoma4K8[] = {
/* columns rows colors chars-per-pixel */
"48 48 5 1 ",
"  c black",
". c #565555",
"X c #AFB0B4",
"o c #BDBFC3",
"O c #CDCFD4",
/* pixels */
"...............................OOOO.............",
"..............................OOOOOOOO..........",
"............................OOOOOOOOOOOO........",
".........................OOOOOOOOOOOOOOOO.......",
"...................OOOOOOOOOOOOOOOOOOOOOOOOOO.o.",
".................OOOOOOOOOOOOOOOOOOOOOOOOOOOOOO.",
"................OOOOOOOOOOOOOOOOOOOOOOOOOOOOOO..",
"...............OOOOOOOOOOOOOOOOOOOOOOOO..OO.....",
"..............OOOOOOOOOOOOOOOOOOOOOOo...........",
".............OOOOOOOOOOOOOOOOOOOOO..............",
".............OOOOOOOOOOOOOOOOOOOOO..............",
".............OOOOOOOOOOOOOOOOOOOO...............",
".............OOOOOOOOOOOOOOOOOOOO...............",
"............OOOOOOOOOOOOOOOOOOOOO...............",
"............OOOOOO  OOOOOOO  OOOOO..............",
"............OOOOOO  OOOOOOO  OOOOO..............",
"............OOOOOO  OOOOOOO  OOOOO..............",
"...........OOOOOOO  OOOOOOO  OOOOOO.............",
"...........OOOOOOOO OOOOOOOO OOOOOOO............",
"...........OOOOOOOOOOOOOOOOOOOOOOOOOO...........",
"...........OOOOOOOOOOOOOOOOOOOOOOOOOOO..........",
".........OOOOOOOOOOOOOOOOOOOOOOOOOOOOO..........",
".........OOOOOOOOOOOOOOOOOOOOOOOOOOOOO..........",
".........OOOOOOOOOOOOOOOOOOOOOOOOOOOOO..........",
".........OOOOOOO  OOOOOOOOOOOOOOO OOOOOO........",
".........OOOOOO   OOOOOOOOOOOOOO  OOOOO.........",
".........OOOOOOOO  OOOOOOOOOOOO  OOOOOOOO.......",
"..........OOOOOOOO OOOOOOOOOOO   OOOOOOOOOO.....",
".......OOOOOOOOOOO  OOOOOOOOO   OOOOOOOOOOOOOO..",
"....OOOOOOOOOOOOOOO  OOOOOO    OOOOOOOOOOOOOOOOO",
"..OOOOOOOOOOOOOOOOO          OOOOOOOOOOOOOOOOOO.",
".OOOOOOOOOOOOOOOOOOO   OOO  OOOOOOOOOOOOOOOOOOO.",
".OOOOOOOOOOOOOOOOOOOOOOOOOOOOOOOOOOOOOOOOOOO.O..",
"..OOOOOOOOOOOOOOOOOOOOOOOOOOOOOOOOOOOOOOOOOO....",
"...OOOOOOOOOOOOOOOOOOOOOOOOOOOOOOOOOOOOOOOOO....",
".....OOOOOOOOOOOOOOOOOOOOOOOOOOOOOOOOOOOOOO.....",
".......OOOOOOOOOOOOOOOOOOOOOOOOOOOOOOOOOOX......",
"........OOOOOOOOOOOOOOOOOOOOOOOOOOOOOOOOO.......",
".........OOOOOOOOOOOOOOOOOOOOOOOOOOOOOOO........",
".........OOOOOOOOOOOOOOOOOOOOOOOOOOOOOOOO.......",
".........OOOOOOOOOOOOOOOOOOOOOOOOOOOOOOO........",
".........OOOOOOOOOOOOOOOOOOOOOOOOOOOOOO.........",
"..........OOOOOOOOOOOOOOOOOOOOOOOOOOOOO.........",
"...........OOOOOOOOOOOOOOOOOOOOOOO.OOOO.........",
"............OOOOOOOOOOOOOOOOOOOOOO...O..........",
"...............OOOOOOOO......OOOO...............",
"................OOOOO...........................",
"................OOOO............................"
};
