/* XPM */
static char * ea_xpm[] = {
"64 64 77 1",
" 	c #02580D",
".	c #02560C",
"+	c #000000",
"@	c #000800",
"#	c #014909",
"$	c #024F0B",
"%	c #02550C",
"&	c #024D0A",
"*	c #012F04",
"=	c #014809",
"-	c #02570D",
";	c #02500B",
">	c #014608",
",	c #012C03",
"'	c #013004",
")	c #013605",
"!	c #000A00",
"~	c #02540C",
"{	c #000400",
"]	c #02520C",
"^	c #014007",
"/	c #014107",
"(	c #012A03",
"_	c #001E02",
":	c #014508",
"<	c #024E0A",
"[	c #014C0A",
"}	c #000F01",
"|	c #014A09",
"1	c #001001",
"2	c #02530C",
"3	c #013405",
"4	c #013805",
"5	c #001101",
"6	c #02510B",
"7	c #002903",
"8	c #000100",
"9	c #02520B",
"0	c #014207",
"a	c #014408",
"b	c #002803",
"c	c #013B06",
"d	c #013906",
"e	c #002703",
"f	c #001401",
"g	c #02560D",
"h	c #001901",
"i	c #013705",
"j	c #024C0A",
"k	c #002603",
"l	c #002402",
"m	c #013505",
"n	c #000900",
"o	c #014B0A",
"p	c #013A06",
"q	c #001C02",
"r	c #014709",
"s	c #002A03",
"t	c #012E04",
"u	c #013F07",
"v	c #012B03",
"w	c #002102",
"x	c #013E06",
"y	c #013E07",
"z	c #013D06",
"A	c #001201",
"B	c #000300",
"C	c #014308",
"D	c #000500",
"E	c #002503",
"F	c #013304",
"G	c #001A01",
"H	c #013305",
"I	c #001501",
"J	c #013204",
"K	c #014708",
"L	c #013104",
"                                                                ",
"                                                                ",
"                                                                ",
"                                                                ",
"                                                                ",
"                                                                ",
"                                                                ",
"                                                                ",
"                                                                ",
"                                                                ",
"                                                                ",
"                                                                ",
"                                                                ",
"                                                                ",
"                                                                ",
"                                                                ",
"   .++++++++++++++++++++@               #+$                     ",
"    %&*+++++=    -%;>,+++-              '+)                     ",
"       *++++=         =!+%             ~{+!%                    ",
"       &++++=          =+]             ^+++/                    ",
"       .++++=           (;             _+++_                    ",
"        @+++=           :<            [)}+++|                   ",
"        1+++=           2]            3;4+++*                   ",
"        5+++=     6=                 %7 ;+++89                  ",
"        5+++=     #=                 0a  b+++c                  ",
"        5+++=     d#                 e%  >+++fg                 ",
"        5+++=    9}#                <3   -f+++>                 ",
"        5+++= g9:h+#                ij    c+++k                 ",
"        5++++++++++|               .l     68+++<                ",
"        5+++= %<d8+|               :^      ,+++m                ",
"        5+++=    :+|               72      =+++n%               ",
"        5+++=     bo              ;+++++++++++++^               ",
"        5+++=     /o              p:        i+++q               ",
"        5+++=     j[             -q.        ;++++|              ",
"        5+++r              .     =)          s+++t              ",
"        5+++>             ~u     v<          =+++89             ",
"        1+++a             r^    6w           -h+++c             ",
"        @+++x             '0    4y            z+++A.            ",
"       .++++t            ;Ba   2n|            $++++C            ",
"       &++++D6          .E+>   F+o            ~++++G.           ",
"       *+++++l~        ]e++=  0++H            >+++++m           ",
"    .&*+++++++Iu$~-%9=)@+++#64++++)6       -;u!++++++,|~        ",
"   .+++++++++++++++++++++++J++++++++K      L++++++++++++9       ",
"                                                                ",
"                                                                ",
"                                                                ",
"                                                                ",
"                                                                ",
"                                                                ",
"                                                                ",
"                                                                ",
"                                                                ",
"                                                                ",
"                                                                ",
"                                                                ",
"                                                                ",
"                                                                ",
"                                                                ",
"                                                                ",
"                                                                ",
"                                                                ",
"                                                                ",
"                                                                ",
"                                                                "};
