/* XPM */
static char * no_xpm[] = {
"64 64 127 2",
"  	c #F30F3D",
". 	c #D80D35",
"+ 	c #0A0401",
"@ 	c #2E0405",
"# 	c #DA0D36",
"$ 	c #720618",
"% 	c #C30B2F",
"& 	c #ED0E3B",
"* 	c #970922",
"= 	c #630513",
"- 	c #3E0509",
"; 	c #370407",
"> 	c #660614",
", 	c #89071E",
"' 	c #BF0B2E",
") 	c #E80E3A",
"! 	c #EA0E3A",
"~ 	c #C00B2E",
"{ 	c #410509",
"] 	c #55050F",
"^ 	c #F00F3C",
"/ 	c #7E071B",
"( 	c #1F0403",
"_ 	c #AF0A29",
": 	c #E40E39",
"< 	c #F20F3D",
"[ 	c #AA0928",
"} 	c #3C0508",
"| 	c #6A0615",
"1 	c #C20B2F",
"2 	c #E30E38",
"3 	c #EF0F3C",
"4 	c #EE0E3C",
"5 	c #E20E38",
"6 	c #BE0B2D",
"7 	c #610513",
"8 	c #A30826",
"9 	c #C70B30",
"0 	c #7A071A",
"a 	c #AD0A29",
"b 	c #D20C33",
"c 	c #F10F3C",
"d 	c #9C0924",
"e 	c #D00C33",
"f 	c #EC0E3B",
"g 	c #6C0616",
"h 	c #9D0924",
"i 	c #9A0923",
"j 	c #D90D35",
"k 	c #1A0402",
"l 	c #9A0924",
"m 	c #910821",
"n 	c #940821",
"o 	c #CE0C32",
"p 	c #130402",
"q 	c #BC0B2D",
"r 	c #A90928",
"s 	c #5E0612",
"t 	c #EB0E3B",
"u 	c #53050F",
"v 	c #B70A2C",
"w 	c #D40C34",
"x 	c #E70E39",
"y 	c #47050B",
"z 	c #45050B",
"A 	c #49050C",
"B 	c #A70927",
"C 	c #2B0405",
"D 	c #7B071A",
"E 	c #6D0616",
"F 	c #EE0E3B",
"G 	c #F10F3D",
"H 	c #E90E3A",
"I 	c #5B0611",
"J 	c #900820",
"K 	c #D50D34",
"L 	c #B40A2B",
"M 	c #AE0A29",
"N 	c #D70D35",
"O 	c #DE0D37",
"P 	c #B10A2A",
"Q 	c #BE0B2E",
"R 	c #C50C2F",
"S 	c #C50C30",
"T 	c #CD0C32",
"U 	c #CC0C31",
"V 	c #B60A2B",
"W 	c #CF0C32",
"X 	c #CA0B31",
"Y 	c #B50A2B",
"Z 	c #390508",
"` 	c #DF0E37",
" .	c #CB0B31",
"..	c #C60B30",
"+.	c #970923",
"@.	c #5F0512",
"#.	c #CF0C33",
"$.	c #BA0A2C",
"%.	c #780619",
"&.	c #84071D",
"*.	c #270404",
"=.	c #9E0825",
"-.	c #950822",
";.	c #4E050D",
">.	c #580510",
",.	c #A50827",
"'.	c #930821",
").	c #4C050D",
"!.	c #DC0D36",
"~.	c #340406",
"{.	c #650514",
"].	c #E00E37",
"^.	c #C40C2F",
"/.	c #5C0611",
"(.	c #D30C34",
"_.	c #79061A",
":.	c #B20A2A",
"<.	c #A00825",
"[.	c #980923",
"}.	c #D10C33",
"|.	c #750618",
"1.	c #BD0B2D",
"2.	c #E10E38",
"3.	c #E70E3A",
"4.	c #82071C",
"5.	c #43050A",
"6.	c #6B0615",
"                                                                                                                                ",
"                                                                                                                                ",
"                                                                                                                                ",
"                                                                                                                                ",
"                                                                                                                                ",
"                                                                                                                                ",
"                                                                                                                                ",
"                                                                                                                                ",
"                                                                                                                                ",
"                                                                                                                                ",
"                                                                                                                                ",
"                                                                                                                                ",
"                                                                                                                                ",
"                                                                                                                                ",
"                                                                                                                                ",
"                                                                                                                                ",
"                                                                                                                                ",
"                                                                                                                                ",
"                                                                                                                                ",
"              . + + + + + @ #                 $ + + + + + + %                 & % * = - ; > , ' )                               ",
"                ! ~ { + + + ] )               ^ . / + ( _ : <             & [ } | 1 2 3 4 5 6 7 ( 8 !                           ",
"                    9 + + + + 0 ^                 3 ] a                 b ] + 8 c             ^ d + { e                         ",
"                    f g } + + + h                   i j               % k + l                     m + ( 1                       ",
"                      n o p + + + q                 r :             o p + s &                     t u + p e                     ",
"                      i   v + + + ( w               a x           ! y + + '                         v + + z !                   ",
"                      i     l + + + A :             a x           B + + } 4                         t C + + r                   ",
"                      i     ^ D + + + E F           a x         ^ - + + ,                             / + + z G                 ",
"                      i       H I + + + J           a x         K + + + L                             M + + + N                 ",
"                      i         O ; + + + P         a x         Q + + + R                             ' + + + S                 ",
"                      i           T p + + p U       a x         V + + + W                             X + + + q                 ",
"                      i             Y + + + Z `     a x         Q + + +  .                            ..+ + + 9                 ",
"                      i               +.+ + + @.t   a x         #.+ + + ~                             $.+ + + #                 ",
"                      i               ^ %.+ + + &.G a x         & *.+ + =.                            -.+ + ;.<                 ",
"                      i                 ) >.+ + + ,.a x           '.+ + >.<                         c ).+ + _                   ",
"                      i                   !.~.+ + + {.x           ].k + + X                         ^.+ + ).f                   ",
"                      J                      .p + + + x             V + + {.4                     f /.+ ( (.                    ",
"                    f _.                      :.+ + + x               <.+ + * <                 < m + *...                      ",
"                    9 C x                       n + + x                 V k + [.3             4 '.+ A w                         ",
"                ! ~ { + | }.4                   3 |.+ x                   O , + /.1.5 3 4 2.q >.C r t                           ",
"              . + + + + + + @                     3.] x                       ].V 4.7 ~.5.6.m R !                               ",
"                                                                                                                                ",
"                                                                                                                                ",
"                                                                                                                                ",
"                                                                                                                                ",
"                                                                                                                                ",
"                                                                                                                                ",
"                                                                                                                                ",
"                                                                                                                                ",
"                                                                                                                                ",
"                                                                                                                                ",
"                                                                                                                                ",
"                                                                                                                                ",
"                                                                                                                                ",
"                                                                                                                                ",
"                                                                                                                                ",
"                                                                                                                                ",
"                                                                                                                                ",
"                                                                                                                                ",
"                                                                                                                                ",
"                                                                                                                                ",
"                                                                                                                                ",
"                                                                                                                                ",
"                                                                                                                                ",
"                                                                                                                                "};
