/* XPM */
static char * so_xpm[] = {
"64 64 143 2",
"  	c #F3F30F",
". 	c #DFDF0D",
"+ 	c #A4A406",
"@ 	c #696902",
"# 	c #373701",
"$ 	c #838304",
"% 	c #C9C90A",
"& 	c #F2F20F",
"* 	c #E8E80E",
"= 	c #C6C60A",
"- 	c #9C9C06",
"; 	c #707003",
"> 	c #525201",
", 	c #242400",
"' 	c #616102",
") 	c #8C8C05",
"! 	c #B8B808",
"~ 	c #E1E10D",
"{ 	c #F0F00F",
"] 	c #A4A407",
"^ 	c #0C0C00",
"/ 	c #828204",
"( 	c #D2D20B",
"_ 	c #ECEC0E",
": 	c #EFEF0F",
"< 	c #E0E00D",
"[ 	c #B1B108",
"} 	c #747403",
"| 	c #BEBE09",
"1 	c #EBEB0E",
"2 	c #EAEA0E",
"3 	c #D8D80C",
"4 	c #959505",
"5 	c #1A1A00",
"6 	c #767603",
"7 	c #BBBB09",
"8 	c #DEDE0D",
"9 	c #DBDB0C",
"0 	c #B3B308",
"a 	c #656502",
"b 	c #000000",
"c 	c #7D7D04",
"d 	c #CFCF0B",
"e 	c #F1F10F",
"f 	c #8A8A04",
"g 	c #2B2B00",
"h 	c #8E8E05",
"i 	c #949405",
"j 	c #3A3A01",
"k 	c #C5C50A",
"l 	c #B7B708",
"m 	c #1F1F00",
"n 	c #7F7F04",
"o 	c #E2E20D",
"p 	c #AAAA07",
"q 	c #EDED0E",
"r 	c #8B8B05",
"s 	c #CCCC0B",
"t 	c #414101",
"u 	c #3F3F01",
"v 	c #D9D90C",
"w 	c #CDCD0B",
"x 	c #323201",
"y 	c #C8C80A",
"z 	c #E4E40D",
"A 	c #B2B208",
"B 	c #BCBC09",
"C 	c #868604",
"D 	c #D1D10B",
"E 	c #BFBF09",
"F 	c #B9B908",
"G 	c #CACA0A",
"H 	c #555502",
"I 	c #9F9F06",
"J 	c #C2C209",
"K 	c #C3C30A",
"L 	c #B5B508",
"M 	c #7E7E04",
"N 	c #D3D30B",
"O 	c #141400",
"P 	c #3C3C01",
"Q 	c #DCDC0C",
"R 	c #606002",
"S 	c #7A7A03",
"T 	c #A5A507",
"U 	c #626202",
"V 	c #666602",
"W 	c #AFAF08",
"X 	c #D0D00B",
"Y 	c #C0C009",
"Z 	c #919105",
"` 	c #494901",
" .	c #454501",
"..	c #646402",
"+.	c #575702",
"@.	c #CBCB0B",
"#.	c #7B7B03",
"$.	c #505001",
"%.	c #B0B008",
"&.	c #686802",
"*.	c #AEAE07",
"=.	c #C4C40A",
"-.	c #9B9B06",
";.	c #4B4B01",
">.	c #CECE0B",
",.	c #787803",
"'.	c #818104",
").	c #2F2F01",
"!.	c #E5E50D",
"~.	c #D4D40C",
"{.	c #4F4F01",
"].	c #D6D60C",
"^.	c #6E6E03",
"/.	c #E9E90E",
"(.	c #6F6F03",
"_.	c #929205",
":.	c #C1C109",
"<.	c #BDBD09",
"[.	c #A0A006",
"}.	c #808004",
"|.	c #878704",
"1.	c #979705",
"2.	c #999906",
"3.	c #5A5A02",
"4.	c #E7E70E",
"5.	c #A2A206",
"6.	c #B4B408",
"7.	c #545402",
"8.	c #EEEE0E",
"9.	c #CBCB0A",
"0.	c #4D4D01",
"a.	c #ADAD07",
"b.	c #A6A607",
"c.	c #757503",
"d.	c #585802",
"e.	c #282800",
"f.	c #B6B608",
"g.	c #727203",
"h.	c #E6E60E",
"i.	c #C7C70A",
"j.	c #969605",
"k.	c #ABAB07",
"l.	c #6C6C03",
"                                                                                                                                ",
"                                                                                                                                ",
"                                                                                                                                ",
"                                                                                                                                ",
"                                                                                                                                ",
"                                                                                                                                ",
"                                                                                                                                ",
"                                                                                                                                ",
"                                                                                                                                ",
"                                                                                                                                ",
"                                                                                                                                ",
"                                                                                                                                ",
"                                                                                                                                ",
"                                                                                                                                ",
"                                                                                                                                ",
"                                                                                                                                ",
"                                                                                                                                ",
"                    . + @ # # $ % &                                       * = - ; > , # ' ) ! ~                                 ",
"                { ] ^ / ( _ : < [ } | 1 2 -                           3 4 5 6 7 8 2 { * 9 0 a b c d                             ",
"              e f b -             ~ ' ^ g h                       * i b j k                 e l m b n o                         ",
"              p b > q               < j b r                     s t b u v                       w , b x y                       ",
"            z , b A                   B b C                   ! ^ b b D                           E b b b F                     ",
"            A b b G                   { H /                 7 b b b I                               $ b b b J                   ",
"            n b b K                     L M               N O b b P q                               o ^ b b g Q                 ",
"            R b b i                     z S             q H b b b T                                   r b b b U e               ",
"            V b b O 3                     -             W b b b b <                                   X b b b b Y               ",
"            Z b b b ` 9                               :  .b b b ..                                    e x b b b +.&             ",
"            G b b b b g 0 :                           @.b b b b -                                       / b b b b 3             ",
"            & #.b b b b b $.! q                       I b b b b J                                       %.b b b b W             ",
"              * &.b b b b b b t *.2                   } b b b b N                                       =.b b b b h             ",
"                _ -.b b b b b b b j A {               ;.b b b b Q                                       >.b b b b ,.            ",
"                    v '.b b b b b b b a .             ).b b b b !.                                      3 b b b b V             ",
"                        ~.n b b b b b b # v           {.b b b b !.                                      ].b b b b c             ",
"                            ( ^.b b b b b ` /.        (.b b b b Q                                       w b b b b _.            ",
"                              e W ^ b b b b -         i b b b b D                                       :.b b b b l             ",
"                                  <.b b b b , _       K b b b b L                                       [.b b b b .             ",
"          ].                        }.b b b b X       * 5 b b b |.                                      a b b b V               ",
"          1.                        % b b b b Y         2.b b b x _                                   o b b b b y               ",
"          3.4.                      * b b b b K         o 5 b b b l                                   5.b b b (.&               ",
"          > 6.                      & b b b b N           6.b b b 7.8.                              * x b b j <                 ",
"          $.{.:                     2 b b b u {             f b b b [.                              f b b ^ 9.                  ",
"          0.b a.                    s b b b b.              q c b b b s                           B b b ^ J                     ",
"          ` b ^ s                 e c.b b d.1                 8.i b b e.X                       K ^ b u >.                      ",
"           .O b ).=.            e - b b {.8                       K  .b e.f.e               : p ^ b f !.                        ",
"          / _ 2 %. .C w 4.e * % g.b b r h.                          _ A > b &.L Q 2 e * v W 3.O |.~.                            ",
"                  : i.j.a x 5  .,.p Q                                   e N k./ H ).5 t l.4 E h.                                ",
"                                                                                                                                ",
"                                                                                                                                ",
"                                                                                                                                ",
"                                                                                                                                ",
"                                                                                                                                ",
"                                                                                                                                ",
"                                                                                                                                ",
"                                                                                                                                ",
"                                                                                                                                ",
"                                                                                                                                ",
"                                                                                                                                ",
"                                                                                                                                ",
"                                                                                                                                ",
"                                                                                                                                ",
"                                                                                                                                ",
"                                                                                                                                ",
"                                                                                                                                ",
"                                                                                                                                "};
