/* XPM */
static char * we_xpm[] = {
"64 64 78 1",
" 	c #020558",
".	c #01023B",
"+	c #000000",
"@	c #010238",
"#	c #01023D",
"$	c #000121",
"%	c #02044D",
"&	c #010343",
"*	c #020452",
"=	c #020557",
"-	c #01023A",
";	c #000006",
">	c #010346",
",	c #020555",
"'	c #020454",
")	c #020554",
"!	c #000001",
"~	c #000003",
"{	c #01033F",
"]	c #010345",
"^	c #000013",
"/	c #01012F",
"(	c #020556",
"_	c #010348",
":	c #01012D",
"<	c #020450",
"[	c #01012E",
"}	c #010233",
"|	c #01012A",
"1	c #010230",
"2	c #010340",
"3	c #01044B",
"4	c #010341",
"5	c #00000F",
"6	c #000124",
"7	c #01034A",
"8	c #010235",
"9	c #000123",
"0	c #00000E",
"a	c #010239",
"b	c #020451",
"c	c #000122",
"d	c #00011F",
"e	c #000125",
"f	c #010234",
"g	c #02044E",
"h	c #010342",
"i	c #01044A",
"j	c #000126",
"k	c #000129",
"l	c #010349",
"m	c #01044C",
"n	c #010236",
"o	c #020453",
"p	c #010344",
"q	c #01023E",
"r	c #010231",
"s	c #010237",
"t	c #010232",
"u	c #000004",
"v	c #010347",
"w	c #000005",
"x	c #000128",
"y	c #000016",
"z	c #01012C",
"A	c #02044C",
"B	c #00000B",
"C	c #00011E",
"D	c #000127",
"E	c #01023C",
"F	c #000015",
"G	c #02044F",
"H	c #000010",
"I	c #01012B",
"J	c #00000A",
"K	c #00011B",
"L	c #000014",
"M	c #00012A",
"                                                                ",
"                                                                ",
"                                                                ",
"                                                                ",
"                                                                ",
"                                                                ",
"                                                                ",
"                                                                ",
"                                                                ",
"                                                                ",
"                                                                ",
"                                                                ",
"                                                                ",
"                                                                ",
"                                                                ",
"                                                                ",
"   .+++++++++@   #+++++++++$   %+++++++&+++++++++++++++++*      ",
"   =*-++++;>,     '-+++++.)     ,&!+~{* )]^+++/    (*_:++<      ",
"      -+++[         }+++|         1+2     3+++/        4+%      ",
"      ,5++6         7+++8         -9=      0++/         }3      ",
"       a+++b        %+++c         1_       d++/         %_      ",
"       b!++a        ]$+++*       =e        9++/         =<      ",
"        [++5(       fg+++4       _h        9++/     h           ",
"        i+++&      =8 j++k       1,        9++/    *2           ",
"         d++$      l_ 4++!)     ba         9++/    a2           ",
"         h+++m     n( o!++p     ab         9++/ =*q~4           ",
"         ,5++r    (s   k++:    (t          9++++++++4           ",
"          @++uo   vi   &++w,   p7          9++/ (%1+h           ",
"          b+++#   n=   )u++>   1           9++/    xh           ",
"           :++y= ,a     z++r  A4           9++/    3&           ",
"           7+++> >A     ]++B( 8,           9++/    (p           ",
"            C++D n      ,;++_o@            9++/           ))    ",
"            h+++3E       /++fq<            9++z           p<    ",
"            ,0++FG       >++H}             d++$           Ib    ",
"             @++d        (J++_             0++u)         _+*    ",
"             b++q         t+K=            3++++t        %^+)    ",
"              z+b         _+2           ,]L+++++M_o=(olfu++,    ",
"              l6          (F)          G+++++++++++++++++++=    ",
"                                                                ",
"                                                                ",
"                                                                ",
"                                                                ",
"                                                                ",
"                                                                ",
"                                                                ",
"                                                                ",
"                                                                ",
"                                                                ",
"                                                                ",
"                                                                ",
"                                                                ",
"                                                                ",
"                                                                ",
"                                                                ",
"                                                                ",
"                                                                ",
"                                                                ",
"                                                                ",
"                                                                ",
"                                                                ",
"                                                                ",
"                                                                ",
"                                                                ",
"                                                                "};
